<?xml version="1.0" encoding="utf-8"?>
<!-- Generator: Adobe Illustrator 21.0.0, SVG Export Plug-In . SVG Version: 6.00 Build 0)  -->
<svg version="1.1" id="Ebene_1" xmlns="http://www.w3.org/2000/svg" xmlns:xlink="http://www.w3.org/1999/xlink" x="0px" y="0px"
	 viewBox="0 0 282.7 78.6" style="enable-background:new 0 0 282.7 78.6;" xml:space="preserve">
<style type="text/css">
	.st0{fill:#FFFFFF;}
</style>
<polygon class="st0" points="8,6.1 8,73 32.6,73 32.6,58.5 37.4,52 49.6,73 79.1,73 55.5,37.6 78.6,8.1 51.9,4.7 32.6,30.1 
	32.6,6.1 "/>
<path class="st0" d="M133.7,49.3h-13l6.7-16.8L133.7,49.3z M142.4,73h26.1L139.6,6.1h-21.8L88.5,73h22.8l4.1-9.8h23.2L142.4,73z"/>
<polygon class="st0" points="239.4,37.5 227.2,4.7 203.3,8.1 212.4,30.8 208.3,43 193.2,4.7 168.2,8.1 194.2,73 213.9,73 
	221.2,52.2 229.3,73 248.8,73 274.7,8.1 251.3,4.7 "/>
</svg>
