<?xml version="1.0" encoding="UTF-8" standalone="no"?>
<svg
   viewBox="0 0 820.79999 466.716"
   height="466.716"
   width="820.79999"
   xml:space="preserve"
   id="svg2"
   version="1.1"
   sodipodi:docname="kaw_logo_menu.svg"
   inkscape:version="1.1.2 (0a00cf5339, 2022-02-04)"
   xmlns:inkscape="http://www.inkscape.org/namespaces/inkscape"
   xmlns:sodipodi="http://sodipodi.sourceforge.net/DTD/sodipodi-0.dtd"
   xmlns="http://www.w3.org/2000/svg"
   xmlns:svg="http://www.w3.org/2000/svg"
   xmlns:rdf="http://www.w3.org/1999/02/22-rdf-syntax-ns#"
   xmlns:cc="http://creativecommons.org/ns#"
   xmlns:dc="http://purl.org/dc/elements/1.1/"><sodipodi:namedview
     id="namedview187"
     pagecolor="#ffffff"
     bordercolor="#666666"
     borderopacity="1.0"
     inkscape:pageshadow="2"
     inkscape:pageopacity="0.0"
     inkscape:pagecheckerboard="0"
     showgrid="false"
     inkscape:zoom="1.2630808"
     inkscape:cx="298.08069"
     inkscape:cy="245.8275"
     inkscape:window-width="2560"
     inkscape:window-height="1394"
     inkscape:window-x="2560"
     inkscape:window-y="22"
     inkscape:window-maximized="1"
     inkscape:current-layer="svg2" /><metadata
     id="metadata8"><rdf:RDF><cc:Work
         rdf:about=""><dc:format>image/svg+xml</dc:format><dc:type
           rdf:resource="http://purl.org/dc/dcmitype/StillImage" /></cc:Work></rdf:RDF></metadata><defs
     id="defs6"><clipPath
       id="clipPath42"
       clipPathUnits="userSpaceOnUse"><path
         id="path40"
         d="M 0,350.037 H 615.6 V 0 H 0 Z" /></clipPath></defs><path
     id="path18"
     style="fill:#1a181b;fill-opacity:1;fill-rule:nonzero;stroke:none;stroke-width:1.333;stroke-miterlimit:4;stroke-dasharray:none"
     d="m 666.25212,246.71971 50.66667,35.33333 -17.86667,-59.2 49.2,-37.2 -61.73333,-1.33333 -20.26667,-58.26666 -20.26667,58.26666 -61.73333,1.33333 49.2,37.2 -17.86667,59.2 z" /><g
     id="g746"
     transform="translate(-266.39998)"><g
       transform="matrix(1.3333333,0,0,-1.3333333,371.05199,235.65331)"
       id="g20"><path
         id="path22"
         style="fill:#be1622;fill-opacity:1;fill-rule:nonzero;stroke:none"
         d="m 0,0 v -66.9 h 24.6 v 14.5 l 4.8,6.5 12.201,-21 h 29.5 L 47.5,-31.5 70.601,-2 43.9,1.4 24.6,-24 V 0 Z" /></g><g
       transform="matrix(1.3333333,0,0,-1.3333333,550.25252,324.85371)"
       id="g24"><path
         id="path26"
         style="fill:#be1622;fill-opacity:1;fill-rule:nonzero;stroke:none"
         d="M 0,0 H 26.1 L -2.8,66.9 H -24.601 L -53.9,0 h 22.799 L -27,9.801 h 23.2 z m -8.7,23.7 h -13 l 6.7,16.8 z" /></g><g
       transform="matrix(1.3333333,0,0,-1.3333333,679.58585,277.52037)"
       id="g28"><path
         id="path30"
         style="fill:#be1622;fill-opacity:1;fill-rule:nonzero;stroke:none"
         d="M 0,0 -12.2,32.8 -36.101,29.4 -27,6.7 -31.101,-5.5 -46.2,32.8 l -25,-3.4 26,-64.9 h 19.7 l 7.3,20.801 8.099,-20.801 h 19.5 L 35.3,29.4 11.899,32.8 Z" /></g></g><path
     id="path132"
     style="fill:#1a181b;fill-opacity:1;fill-rule:nonzero;stroke:none;stroke-width:1.33333;stroke-opacity:1"
     d="M 779.71891,58.31998 H 552.91892 V 360.58664 H 779.71891 Z M 526.25226,185.65331 H 38.652267 v 175.6 H 526.25226 Z m 0,202.26666 H 38.652267 11.985597 v -26.66666 -175.6 -26.66667 H 38.652267 526.25226 V 58.31998 31.653314 h 26.66666 226.79999 26.66667 V 58.31998 360.58664 387.2533 H 779.71891 552.91892 v 0.66667 z" /></svg>
